<svg xmlns="http://www.w3.org/2000/svg" xmlns:xlink="http://www.w3.org/1999/xlink" version="1.1" x="0px" y="0px" viewBox="0 0 226.8 283.5" style="enable-background:new 0 0 226.8 226.8;" xml:space="preserve"><path d="M197.8,61.1l-27.2-0.7l-3.4-0.1l-0.7,0.3l-53.6,25.1l-52.5-25l-0.7-0.3l-3.4,0.1L29,61.3l2.1,28.1l24.5,24.1L51,145.7  l20.5,20.8l20-20.4l21.9,17.6l22-17.8l20,20.4l20.5-20.8l-4.7-32.2l24.5-24.1L197.8,61.1z M106,86.4l-7.5,3.6l-11.1,5.3l0-0.1  l-0.6,0.3l-13.7-18l-8.6-11.3L106,86.4z M107.2,89.3l-11.4,43.5l-6.4-28.6l-1.3-5.6l12-5.8L107.2,89.3z M34.2,87.9l-1.8-23.6  l26.2-0.7l12.1,16L84,97.1L71,104L57.6,111L34.2,87.9z M71.4,162l-17.1-17.4l4.5-30.7l6.7-3.5L85.3,100l1.1,5l7.6,34L71.4,162z   M95.7,145.5l1.4-5.2l1.4-5.1l9.8-37.7L110,157L95.7,145.5z M162.3,66.1l-8.6,11.3l-13.7,18l-0.6-0.3l0,0.1l-11.1-5.3l-7.5-3.6  L162.3,66.1z M126.7,92.6l12,5.8l-1.3,5.6l-6.4,28.6l-11.4-43.5L126.7,92.6z M116.8,156.9l1.7-59.5l9.8,37.7l1.4,5.1l1.4,5.2  L116.8,156.9z M172.5,144.5l-17.1,17.4l-22.6-23.1l7.6-34l1.1-5l19.8,10.4l6.7,3.5L172.5,144.5z M192.6,87.8l-23.4,23.1l-13.4-7.1  L142.8,97l13.3-17.6l12.1-16l26.2,0.7L192.6,87.8z"/><text x="0" y="241.8" fill="#000000" font-size="5px" font-weight="bold" font-family="'Helvetica Neue', Helvetica, Arial-Unicode, Arial, Sans-serif">Created by Liv Iko</text><text x="0" y="246.8" fill="#000000" font-size="5px" font-weight="bold" font-family="'Helvetica Neue', Helvetica, Arial-Unicode, Arial, Sans-serif">from the Noun Project</text></svg>