<svg xmlns="http://www.w3.org/2000/svg" xmlns:xlink="http://www.w3.org/1999/xlink" version="1.1" x="0px" y="0px" viewBox="0 0 100 125" enable-background="new 0 0 100 100" xml:space="preserve"><path fill="#000000" d="M12.736,20.006c-0.39,0-0.75,0.229-0.913,0.592L1.951,42.705c-0.103,0.229-0.115,0.489-0.035,0.728  l10.268,30.492l-3.948,6.262c-0.207,0.328-0.205,0.747,0.005,1.074c0.186,0.288,0.504,0.459,0.841,0.459  c0.045,0,0.09-0.003,0.135-0.009l6.168-0.838c0.196-0.027,0.38-0.111,0.528-0.242l3.3-2.919c0.271-0.239,0.391-0.606,0.315-0.96  l-4.956-22.956l-0.303-12.08l6.204,4.328l2.353,17.548c0.053,0.392,0.331,0.716,0.71,0.827c0.093,0.027,0.188,0.04,0.281,0.04  c0.289,0,0.57-0.126,0.763-0.354l7.415-8.751l6.752,18.578l-2.2,8.021c-0.083,0.301-0.02,0.623,0.169,0.871  c0.189,0.248,0.483,0.394,0.795,0.394h5.317h4.962c0.495,0,0.916-0.362,0.989-0.852l3.089-20.595l20.924,0.972l5.461,10.534  l-1.311,8.793c-0.043,0.288,0.043,0.58,0.232,0.801c0.189,0.22,0.467,0.347,0.758,0.347h6.104H87.4c0.52,0,0.952-0.396,0.996-0.914  l2.438-28.227l0.65-7.507l3.402,6.683c0.174,0.344,0.524,0.546,0.891,0.546c0.116,0,0.234-0.021,0.349-0.062  c0.476-0.177,0.743-0.683,0.622-1.176l-4.314-17.553c-0.045-0.185-0.143-0.353-0.279-0.484L78.357,21.312  c-0.186-0.178-0.434-0.277-0.691-0.277c-0.008,0-0.015,0-0.021,0l-39.393,0.889l-3.169-4.337c-0.189-0.259-0.49-0.41-0.808-0.41  c-0.019,0-0.039,0.001-0.058,0.002l-16.423,0.951c-0.278,0.016-0.536,0.146-0.713,0.361c-0.177,0.214-0.257,0.492-0.221,0.768  l0.182,1.377l-4.159-0.618C12.834,20.01,12.785,20.006,12.736,20.006z M94.258,48.713l-2.957-5.809l0.398-4.602L94.258,48.713z   M89.364,53.662l-16.051,7.604l-22.192-1.031l-17.72-6.963l44.214-30.594l13.328,12.764L89.364,53.662z M13.042,52.668L3.46,43.004  l8.833-19.778L13.042,52.668z M13.148,75.208l1.435,4.26l-4.507,0.612L13.148,75.208z M4.025,44.995l9.091,9.168L18,76.782  l-2.516,2.226L4.025,44.995z M13.708,39.495l-0.456-17.908l4.517,0.671l2.98,22.149L13.708,39.495z M21.886,45.355l-3.466-25.761  l15.218-0.881l-9.69,41.961l-2.05-15.233C21.895,45.412,21.893,45.385,21.886,45.355z M34.516,19.356l12.043,16.552l-14.522,17.1  c-0.05,0.04-0.09,0.088-0.121,0.143l-7.149,8.418L34.516,19.356z M39.864,75.529l2.25,6.188h-3.948L39.864,75.529z M43.179,81.718  l-9.984-27.453l17.267,6.786L47.36,81.718H43.179z M79.561,74.687l3.654,7.031h-4.701L79.561,74.687z M84.342,81.718L74.098,62  l15.166-7.184l-2.321,26.901H84.342z M35.236,50.786l12.34-14.531c0.149-0.176,0.159-0.431,0.023-0.617l-8.895-12.225l37.308-0.842  L35.236,50.786z"/><text x="0" y="115" fill="#000000" font-size="5px" font-weight="bold" font-family="'Helvetica Neue', Helvetica, Arial-Unicode, Arial, Sans-serif">Created by Lluisa Iborra</text><text x="0" y="120" fill="#000000" font-size="5px" font-weight="bold" font-family="'Helvetica Neue', Helvetica, Arial-Unicode, Arial, Sans-serif">from the Noun Project</text></svg>